<?xml version="1.0" encoding="UTF-8" standalone="no"?>
<!-- Created with Inkscape (http://www.inkscape.org/) -->

<svg
   xmlns:dc="http://purl.org/dc/elements/1.1/"
   xmlns:cc="http://creativecommons.org/ns#"
   xmlns:rdf="http://www.w3.org/1999/02/22-rdf-syntax-ns#"
   xmlns:svg="http://www.w3.org/2000/svg"
   xmlns="http://www.w3.org/2000/svg"
   xmlns:sodipodi="http://sodipodi.sourceforge.net/DTD/sodipodi-0.dtd"
   xmlns:inkscape="http://www.inkscape.org/namespaces/inkscape"
   width="3in"
   height="3in"
   viewBox="0 0 270 270.00001"
   id="svg2"
   version="1.1"
   inkscape:version="0.91 r13725"
   sodipodi:docname="Logo3x3.svg">
  <defs
     id="defs4" />
  <sodipodi:namedview
     id="base"
     pagecolor="#ffffff"
     bordercolor="#666666"
     borderopacity="1.0"
     inkscape:pageopacity="0.0"
     inkscape:pageshadow="2"
     inkscape:zoom="0.9899495"
     inkscape:cx="374.76693"
     inkscape:cy="222.46318"
     inkscape:document-units="px"
     inkscape:current-layer="layer1"
     showgrid="false"
     inkscape:window-width="1920"
     inkscape:window-height="1099"
     inkscape:window-x="0"
     inkscape:window-y="1"
     inkscape:window-maximized="1"
     units="in" />
  <metadata
     id="metadata7">
    <rdf:RDF>
      <cc:Work
         rdf:about="">
        <dc:format>image/svg+xml</dc:format>
        <dc:type
           rdf:resource="http://purl.org/dc/dcmitype/StillImage" />
        <dc:title />
      </cc:Work>
    </rdf:RDF>
  </metadata>
  <g
     inkscape:label="Layer 1"
     inkscape:groupmode="layer"
     id="layer1"
     transform="translate(0,-782.36215)">
    <g
       id="g4763"
       transform="matrix(2.7704492,0,0,2.7704492,-217.77488,-1594.5233)">
      <g
         transform="matrix(0.92114314,-0.389224,0.389224,0.92114314,0,0)"
         style="font-style:normal;font-variant:normal;font-weight:normal;font-stretch:normal;font-size:37.5px;line-height:125%;font-family:Imperator;-inkscape-font-specification:Imperator;text-align:center;letter-spacing:0px;word-spacing:0px;text-anchor:middle;fill:#000000;fill-opacity:1;stroke:none;stroke-width:1px;stroke-linecap:butt;stroke-linejoin:miter;stroke-opacity:1"
         id="text4196">
        <path
           d="m -241.48553,892.53562 q 0.075,0.0375 0.075,0.15 -0.075,0.2625 -0.3,0.1125 -3.2625,-2.2875 -3.2625,-6.7125 0,-1.8375 0.7125,-3.9 0.75,-2.1 2.625,-5.025 1.875,-2.925 3.6375,-5.0625 1.7625,-2.1375 3.375,-3.975 1.65,-1.875 1.725,-2.025 0.45,-0.675 0.6,0.15 0.0375,0.2625 0.0375,0.6 0,0.3375 -0.1875,0.6 -2.325,2.85 -4.5,6.45 -3.6375,6.075 -5.2125,11.0625 -0.6,1.9875 -0.6,4.125 0,2.1375 1.275,3.45 z m -31.2,-13.125 q 6.15,-2.55 14.8125,-2.55 4.275,0 8.55,1.35 1.0125,-1.05 3,-3.1125 1.9875,-2.1 3.15,-3.3 3.375,-3.4875 5.5125,-5.1375 3.6,-2.8125 6.6,-2.8125 1.35,0 2.475,0.45 1.125,0.4125 1.35,0.675 0.225,0.225 0.225,0.2625 0,0.0375 -0.075,0.15 -0.075,0.075 -0.225,-0.1125 -0.7125,-0.675 -2.775,-0.675 -3.4875,0 -7.35,3.0375 -2.775,2.25 -4.6125,4.125 -1.8375,1.8375 -3.8625,3.9375 -1.9875,2.0625 -2.7,2.775 3.75,1.3875 4.0875,3.6375 0.0375,0.225 -0.0375,0.3 -0.0375,0.075 -0.15,0 -0.075,-0.075 -0.1125,-0.225 -0.3,-0.7125 -2.1,-1.125 -1.6125,-0.375 -3.7125,-0.5625 -7.6125,7.35 -13.4625,9.3375 -3.1875,1.125 -6.0375,1.125 -5.1,0 -7.0875,-1.5375 -1.95,-1.5 -1.95,-3.3375 0,-0.7125 0.2625,-1.4625 1.125,-3.075 6.225,-5.2125 z m 18.7875,0.9375 q -4.9875,0 -10.5,1.05 -8.475,1.5 -11.025,4.4625 -0.7875,0.9375 -0.7875,1.7625 0,0.975 1.05,1.7625 1.2375,0.9375 4.275,0.9375 3.075,0 6.6375,-1.0125 5.325,-1.65 12.675,-8.8875 -1.1625,-0.075 -2.325,-0.075 z"
           style="font-style:normal;font-variant:normal;font-weight:normal;font-stretch:normal;font-family:Arizonia;-inkscape-font-specification:Arizonia"
           id="path5438" />
      </g>
      <g
         style="font-style:normal;font-variant:normal;font-weight:normal;font-stretch:normal;font-size:37.5px;line-height:125%;font-family:Imperator;-inkscape-font-specification:Imperator;text-align:center;letter-spacing:0px;word-spacing:0px;text-anchor:middle;fill:#000000;fill-opacity:1;stroke:none;stroke-width:1px;stroke-linecap:butt;stroke-linejoin:miter;stroke-opacity:1"
         id="text4200">
        <path
           d="m 129.43803,916.64546 0,0.525 q -1.33125,0 -2.26875,-0.88125 -0.9375,-0.9 -0.9375,-2.2875 l 0,-11.0625 0.6,0 0,11.0625 q 0,1.14375 0.75,1.89375 0.76875,0.75 1.85625,0.75 z"
           style="font-style:normal;font-variant:normal;font-weight:normal;font-stretch:normal;font-size:18.75px;font-family:'Poiret One';-inkscape-font-specification:'Poiret One'"
           id="path5441" />
        <path
           d="m 134.16215,916.64546 0,0.525 q -1.33125,0 -2.26875,-0.88125 -0.9375,-0.9 -0.9375,-2.2875 l 0,-11.0625 0.6,0 0,11.0625 q 0,1.14375 0.75,1.89375 0.76875,0.75 1.85625,0.75 z"
           style="font-style:normal;font-variant:normal;font-weight:normal;font-stretch:normal;font-size:18.75px;font-family:'Poiret One';-inkscape-font-specification:'Poiret One'"
           id="path5443" />
        <path
           d="m 135.02377,908.56421 0.61875,0 3.46875,7.36875 1.63125,-3.43125 -1.81875,-3.9 0.6,0 1.51875,3.31875 1.55625,-3.35625 0.5625,0 -1.8375,3.9375 1.6125,3.46875 3.43125,-7.3875 0.54375,0 -3.99375,8.625 -1.9125,-4.10625 -1.93125,4.10625 -4.05,-8.64375 z"
           style="font-style:normal;font-variant:normal;font-weight:normal;font-stretch:normal;font-size:18.75px;font-family:'Poiret One';-inkscape-font-specification:'Poiret One'"
           id="path5445" />
        <path
           d="m 149.34116,908.58296 0,8.41875 -0.6,0 0,-8.41875 0.6,0 z m -0.3,-2.0625 q -0.54375,0 -0.54375,-0.50625 0,-0.50625 0.54375,-0.50625 0.54375,0 0.54375,0.50625 0,0.50625 -0.54375,0.50625 z"
           style="font-style:normal;font-variant:normal;font-weight:normal;font-stretch:normal;font-size:18.75px;font-family:'Poiret One';-inkscape-font-specification:'Poiret One'"
           id="path5447" />
        <path
           d="m 152.46655,917.00171 -0.6,0 0,-8.4375 0.6,0 0,1.70625 q 0.95625,-1.9125 3.2625,-1.9125 1.575,0 2.64375,1.0875 1.06875,1.0875 1.06875,2.64375 l 0,4.9125 -0.6,0 0,-4.9125 q 0,-1.29375 -0.91875,-2.25 -0.9,-0.95625 -2.19375,-0.95625 -1.29375,0 -2.2875,0.95625 -0.975,0.95625 -0.975,2.25 l 0,4.9125 z"
           style="font-style:normal;font-variant:normal;font-weight:normal;font-stretch:normal;font-size:18.75px;font-family:'Poiret One';-inkscape-font-specification:'Poiret One'"
           id="path5449" />
        <path
           d="m 165.93637,917.22671 -0.16875,0 q -1.78125,0 -3.1125,-1.33125 -1.3125,-1.35 -1.3125,-3.13125 0,-1.78125 1.3125,-3.075 1.3125,-1.3125 3.24375,-1.3125 1.93125,0 3.31875,1.5375 l -5.8875,5.8125 q 1.21875,0.975 2.34375,0.975 1.125,0 2.00625,-0.50625 0.9,-0.525 1.48125,-1.3875 l 0,0.95625 q -1.33125,1.4625 -3.225,1.4625 z m -0.20625,-8.325 q -1.48125,0 -2.64375,1.1625 -1.14375,1.14375 -1.14375,2.64375 0,1.5 0.99375,2.625 l 5.45625,-5.41875 q -1.1625,-1.0125 -2.6625,-1.0125 z"
           style="font-style:normal;font-variant:normal;font-weight:normal;font-stretch:normal;font-size:18.75px;font-family:'Poiret One';-inkscape-font-specification:'Poiret One'"
           id="path5451" />
      </g>
      <g
         style="font-style:normal;font-variant:normal;font-weight:normal;font-stretch:normal;font-size:37.5px;line-height:125%;font-family:Imperator;-inkscape-font-specification:Imperator;text-align:center;letter-spacing:0px;word-spacing:0px;text-anchor:middle;fill:#000000;fill-opacity:1;stroke:none;stroke-width:1px;stroke-linecap:butt;stroke-linejoin:miter;stroke-opacity:1"
         id="text4204">
        <path
           d="m 111.02552,923.94031 -0.09,0 q -0.95,0 -1.66,-0.71 -0.7,-0.72 -0.7,-1.67 0,-0.95 0.7,-1.64 0.7,-0.7 1.73,-0.7 1.03,0 1.77,0.82 l -3.14,3.1 q 0.65,0.52 1.25,0.52 0.6,0 1.07,-0.27 0.48,-0.28 0.79,-0.74 l 0,0.51 q -0.71,0.78 -1.72,0.78 z m -0.11,-4.44 q -0.79,0 -1.41,0.62 -0.61,0.61 -0.61,1.41 0,0.8 0.53,1.4 l 2.91,-2.89 q -0.62,-0.54 -1.42,-0.54 z"
           style="font-style:normal;font-variant:normal;font-weight:normal;font-stretch:normal;font-size:10px;font-family:'Poiret One';-inkscape-font-specification:'Poiret One'"
           id="path5454" />
        <path
           d="m 114.69693,919.48031 q -0.26,0 -0.46,0.17 -0.2,0.17 -0.2,0.42 0,0.25 0.22,0.46 0.23,0.21 0.54,0.39 0.32,0.17 0.64,0.37 0.32,0.2 0.54,0.51 0.23,0.31 0.23,0.71 0,0.59 -0.45,1.01 -0.44,0.41 -1.07,0.41 -0.4,0 -0.75,-0.17 -0.34,-0.18 -0.5,-0.47 l 0,-0.48 q 0.38,0.84 1.22,0.84 0.52,0 0.87,-0.32 0.36,-0.32 0.36,-0.71 0,-0.4 -0.23,-0.67 -0.22,-0.27 -0.54,-0.46 -0.32,-0.19 -0.64,-0.37 -0.31,-0.19 -0.54,-0.45 -0.22,-0.27 -0.22,-0.62 0,-0.36 0.28,-0.6 0.29,-0.25 0.74,-0.25 0.45,0 0.77,0.35 l 0,0.41 q -0.32,-0.48 -0.81,-0.48 z"
           style="font-style:normal;font-variant:normal;font-weight:normal;font-stretch:normal;font-size:10px;font-family:'Poiret One';-inkscape-font-specification:'Poiret One'"
           id="path5456" />
        <path
           d="m 117.60443,919.33031 0,4.49 -0.32,0 0,-4.49 0.32,0 z m -0.16,-1.1 q -0.29,0 -0.29,-0.27 0,-0.27 0.29,-0.27 0.29,0 0.29,0.27 0,0.27 -0.29,0.27 z"
           style="font-style:normal;font-variant:normal;font-weight:normal;font-stretch:normal;font-size:10px;font-family:'Poiret One';-inkscape-font-specification:'Poiret One'"
           id="path5458" />
        <path
           d="m 123.1313,919.32031 0.32,0 0,4.08 q 0,1.16 -0.64,1.83 -0.64,0.67 -1.68,0.67 -0.57,0 -1.11,-0.26 -0.54,-0.26 -0.84,-0.68 l 0,-0.46 q 0.26,0.48 0.81,0.8 0.56,0.32 1.14,0.32 0.88,0 1.44,-0.6 0.56,-0.59 0.56,-1.62 l 0,-0.67 q -0.27,0.55 -0.85,0.88 -0.58,0.33 -1.2,0.33 -0.98,0 -1.68,-0.69 -0.7,-0.7 -0.7,-1.67 0,-0.97 0.7,-1.66 0.7,-0.7 1.68,-0.7 0.65,0 1.21,0.33 0.57,0.32 0.84,0.89 l 0,-1.12 z m -4.11,2.26 q 0,0.85 0.61,1.47 0.62,0.61 1.46,0.61 0.85,0 1.45,-0.61 0.6,-0.62 0.6,-1.47 0,-0.85 -0.6,-1.46 -0.6,-0.62 -1.45,-0.62 -0.84,0 -1.46,0.62 -0.61,0.61 -0.61,1.46 z"
           style="font-style:normal;font-variant:normal;font-weight:normal;font-stretch:normal;font-size:10px;font-family:'Poiret One';-inkscape-font-specification:'Poiret One'"
           id="path5460" />
        <path
           d="m 124.97443,923.82031 -0.32,0 0,-4.5 0.32,0 0,0.91 q 0.51,-1.02 1.74,-1.02 0.84,0 1.41,0.58 0.57,0.58 0.57,1.41 l 0,2.62 -0.32,0 0,-2.62 q 0,-0.69 -0.49,-1.2 -0.48,-0.51 -1.17,-0.51 -0.69,0 -1.22,0.51 -0.52,0.51 -0.52,1.2 l 0,2.62 z"
           style="font-style:normal;font-variant:normal;font-weight:normal;font-stretch:normal;font-size:10px;font-family:'Poiret One';-inkscape-font-specification:'Poiret One'"
           id="path5462" />
        <path
           d="m 130.88833,919.48031 q -0.26,0 -0.46,0.17 -0.2,0.17 -0.2,0.42 0,0.25 0.22,0.46 0.23,0.21 0.54,0.39 0.32,0.17 0.64,0.37 0.32,0.2 0.54,0.51 0.23,0.31 0.23,0.71 0,0.59 -0.45,1.01 -0.44,0.41 -1.07,0.41 -0.4,0 -0.75,-0.17 -0.34,-0.18 -0.5,-0.47 l 0,-0.48 q 0.38,0.84 1.22,0.84 0.52,0 0.87,-0.32 0.36,-0.32 0.36,-0.71 0,-0.4 -0.23,-0.67 -0.22,-0.27 -0.54,-0.46 -0.32,-0.19 -0.64,-0.37 -0.31,-0.19 -0.54,-0.45 -0.22,-0.27 -0.22,-0.62 0,-0.36 0.28,-0.6 0.29,-0.25 0.74,-0.25 0.45,0 0.77,0.35 l 0,0.41 q -0.32,-0.48 -0.81,-0.48 z"
           style="font-style:normal;font-variant:normal;font-weight:normal;font-stretch:normal;font-size:10px;font-family:'Poiret One';-inkscape-font-specification:'Poiret One'"
           id="path5464" />
      </g>
    </g>
  </g>
</svg>
