<?xml version="1.0" encoding="UTF-8" standalone="no"?>
<!-- Created with Inkscape (http://www.inkscape.org/) -->

<svg
   xmlns:dc="http://purl.org/dc/elements/1.1/"
   xmlns:cc="http://creativecommons.org/ns#"
   xmlns:rdf="http://www.w3.org/1999/02/22-rdf-syntax-ns#"
   xmlns:svg="http://www.w3.org/2000/svg"
   xmlns="http://www.w3.org/2000/svg"
   xmlns:sodipodi="http://sodipodi.sourceforge.net/DTD/sodipodi-0.dtd"
   xmlns:inkscape="http://www.inkscape.org/namespaces/inkscape"
   width="113.64226mm"
   height="73.55426mm"
   viewBox="0 0 402.66942 260.62533"
   id="svg4704"
   version="1.1"
   inkscape:version="0.91 r13725"
   sodipodi:docname="montana_home.svg">
  <defs
     id="defs4706" />
  <sodipodi:namedview
     id="base"
     pagecolor="#ffffff"
     bordercolor="#666666"
     borderopacity="1.0"
     inkscape:pageopacity="0.0"
     inkscape:pageshadow="2"
     inkscape:zoom="1.8169576"
     inkscape:cx="200.28682"
     inkscape:cy="109.80194"
     inkscape:document-units="px"
     inkscape:current-layer="layer1"
     showgrid="false"
     fit-margin-top="10"
     fit-margin-left="10"
     fit-margin-right="10"
     fit-margin-bottom="10"
     inkscape:window-width="1440"
     inkscape:window-height="810"
     inkscape:window-x="317"
     inkscape:window-y="333"
     inkscape:window-maximized="0" />
  <metadata
     id="metadata4709">
    <rdf:RDF>
      <cc:Work
         rdf:about="">
        <dc:format>image/svg+xml</dc:format>
        <dc:type
           rdf:resource="http://purl.org/dc/dcmitype/StillImage" />
        <dc:title></dc:title>
      </cc:Work>
    </rdf:RDF>
  </metadata>
  <g
     inkscape:label="Layer 1"
     inkscape:groupmode="layer"
     id="layer1"
     transform="translate(-105.54,-412.21136)">
    <g
       id="layer1-3"
       transform="matrix(0.30592966,-0.02965261,0.02965261,0.30592966,171.27199,394.12104)"
       style="fill:none;stroke:#000000;stroke-width:13.01391414;stroke-miterlimit:4;stroke-dasharray:none;stroke-opacity:1">
      <path
         style="fill:none;stroke:#000000;stroke-width:13.01391414;stroke-miterlimit:4;stroke-dasharray:none;stroke-opacity:1"
         id="MT_At-Large"
         d="M -103.66254,166.6236 L -125.85177,293.75192 C -124.32169,298.76402 -120.01901,302.95755 -117.84878,307.8752 C -116.92947,312.37097 -110.63078,313.96401 -111.11561,318.67597 C -111.77256,322.81283 -111.04001,326.15423 -106.6996,327.52899 C -108.84255,331.2083 -103.43797,332.08562 -102.75793,335.00725 C -103.85144,338.63618 -104.34468,342.13919 -101.66442,345.23712 C -100.72204,350.27649 -104.33208,351.57779 -107.56853,353.71653 C -105.71313,357.62253 -102.92584,361.54321 -101.66442,365.48278 C -100.88155,370.51795 -109.6674,366.57628 -108.1793,368.97949 C -103.99206,371.84235 -103.67514,377.15668 -98.864535,377.27421 C -95.147451,379.8852 -94.971147,384.28233 -94.139989,388.35832 C -89.547673,390.82238 -85.129562,393.7671 -80.102779,395.20272 C -76.910395,395.77152 -76.123319,400.78991 -75.424396,403.34842 C -78.704932,407.98272 -70.901349,404.46712 -73.019099,409.81923 C -71.050368,412.25181 -66.879918,413.50694 -66.416067,417.55985 C -65.322575,423.18061 -59.025983,426.22817 -59.829842,431.87412 C -61.160529,438.82766 -54.188091,435.36873 -53.356946,440.75022 C -53.111372,445.45588 -47.016272,442.93724 -49.639857,447.59462 C -51.398704,452.48078 -51.27907,457.61461 -46.609091,460.50265 C -44.881726,463.97627 -41.143645,463.99727 -39.099349,465.85895 C -34.332814,469.05343 -43.6182,476.95776 -35.556454,473.96688 C -35.600524,470.86266 -30.091008,470.67795 -28.346859,473.70662 C -25.504985,475.44028 -25.809328,482.27628 -28.827494,481.51859 C -27.297425,487.54025 -21.699744,485.43088 -17.111624,487.16035 C -13.831099,490.44088 -13.165756,483.13892 -9.1967986,485.07827 C -3.5550479,483.09484 2.302893,488.03978 -1.8066907,493.95438 C -4.562498,498.12692 -2.9484729,507.29058 -8.5377495,508.38618 C -13.216132,508.1679 -9.2471746,514.42043 -9.7655858,517.34205 C -12.032366,520.52183 -16.368618,522.68786 -15.231044,527.7923 C -16.849265,531.42124 -16.324548,537.95502 -21.834076,537.38831 C -19.953485,540.05597 -18.904051,542.85376 -20.303996,546.00206 C -19.823361,549.74644 -25.202753,551.55566 -27.605951,549.04961 C -31.717633,552.45188 -25.463013,553.81615 -24.178507,556.488 C -22.875106,560.5556 -25.769442,562.95881 -27.299523,565.49003 C -26.79159,570.60707 -21.288367,573.40276 -23.091297,578.82623 C -23.223519,582.71753 -19.636554,589.94602 -25.148181,591.17597 C -30.439421,590.69322 -34.811363,589.54305 -36.561818,595.75149 C -41.154135,597.99937 -38.005833,601.16867 -36.114752,604.19522 C -33.447096,607.45057 -34.821853,615.43256 -39.132929,615.76417 C -45.349773,614.15435 -38.345854,620.36909 -41.978986,622.31265 C -45.570147,625.43996 -37.300616,624.28138 -35.432624,625.43575 C -32.939175,629.14025 -28.741439,639.27987 -25.015958,640.1677 C -19.149625,639.84028 -18.58712,633.51429 -16.926927,631.42592 C -13.560337,630.67453 -8.3677509,633.04415 -6.3003651,630.08685 C -4.1574153,626.61112 -0.74676661,628.09291 -0.60823842,623.48381 C 1.9712645,621.51507 7.0274321,620.97776 5.6442834,616.70237 C 5.4343989,613.33579 12.683881,612.72292 13.909619,616.29309 C 17.538556,618.44023 16.489122,623.33268 18.119943,626.30678 C 21.404675,627.04979 25.684257,626.69298 25.627587,631.16146 C 27.277302,633.89209 20.243999,638.81392 23.749106,639.64298 C 30.702649,638.79504 26.404173,647.63126 26.154402,651.66108 C 23.837258,655.10532 29.554573,657.80238 28.10635,660.97585 C 25.701053,664.16823 26.211072,667.20529 28.849355,670.09543 C 31.481332,674.47786 29.067632,677.90531 33.615878,681.9981 C 38.99527,684.70564 35.578316,692.3518 39.169476,694.98589 C 44.271824,695.5043 43.32313,698.07331 43.499435,701.26989 C 47.304676,703.69199 47.829393,707.97367 48.358306,712.08325 C 46.706505,714.79709 47.963725,721.34764 43.631669,720.56476 C 39.389851,719.71472 44.02625,728.56774 44.987532,730.91638 C 47.304676,733.58403 52.858286,734.63557 52.106889,738.8312 C 51.957871,742.78337 58.097052,737.26125 60.651367,737.12482 C 64.404146,740.38436 70.232691,743.34376 72.054514,747.41767 C 72.186737,750.90178 75.683451,757.01787 76.258544,762.49592 C 78.838047,766.49846 73.71472,768.01384 74.289801,770.841 C 76.678313,775.37456 77.832695,780.21454 77.656379,785.34417 C 76.758073,790.54726 81.644231,793.90964 85.617384,796.21 C 89.508679,795.70418 87.655386,804.78807 91.259135,801.67545 C 95.500941,799.92709 87.105481,795.63701 91.573967,793.14776 C 93.716905,788.55544 98.52751,787.20587 102.72525,785.1133 C 107.85067,785.25812 113.43785,789.65735 119.29789,789.53351 C 122.15655,791.22519 124.58913,792.26833 128.23906,792.64823 C 131.50909,795.54466 134.42232,796.89633 136.25883,792.00597 C 136.56526,787.98874 136.27563,785.49109 140.59509,785.19935 C 142.16924,781.37312 146.61883,782.44354 149.73355,782.67862 C 150.82706,787.01067 153.96277,787.93208 158.08285,787.20587 C 160.57629,791.91153 164.94824,789.40548 170.83345,788.89335 C 178.02627,788.19023 185.37859,785.57715 187.58031,794.53511 C 192.43499,793.37654 196.99582,790.07712 202.14224,790.99222 C 207.0263,791.82338 212.94301,790.21774 216.36416,794.62117 C 213.34599,790.51368 214.08059,785.94025 217.98239,781.6019 C 221.40564,779.46315 216.62652,772.37528 221.96184,773.2694 C 227.25308,773.96202 228.38857,771.67216 230.69732,767.98655 C 234.27378,771.48746 238.7003,774.33562 240.27445,779.3687 C 241.4561,782.73529 244.77861,785.98853 244.4281,789.44955 C 242.28516,793.11208 247.97098,795.31169 249.6039,798.26689 C 252.2149,801.45927 249.17994,807.35709 255.94458,807.38017 C 257.3886,807.86711 256.68338,806.83447 256.86389,806.00331 C 258.21975,783.93584 260.96717,761.91034 264.042,740.01915 C 484.7294,763.74685 628.3842,779.41698 907.08214,791.7688 C 915.69589,616.95004 922.60535,457.48028 929.42038,275.64291 C 470.97553,254.97538 251.98402,220.53508 -103.66254,166.6236 Z"
         inkscape:connector-curvature="0" />
    </g>
    <path
       sodipodi:type="star"
       style="fill:#000000;fill-opacity:1;fill-rule:nonzero;stroke:none;stroke-width:1;stroke-miterlimit:10;stroke-dasharray:none;stroke-opacity:1"
       id="path5716"
       sodipodi:sides="5"
       sodipodi:cx="274.63492"
       sodipodi:cy="584.68481"
       sodipodi:r1="8.0774088"
       sodipodi:r2="4.0387044"
       sodipodi:arg1="1.1479424"
       sodipodi:arg2="1.7762609"
       inkscape:flatsided="false"
       inkscape:rounded="0"
       inkscape:randomized="0"
       d="M 277.9496,592.05078 L 273.81093,588.63857 L 268.65376,590.11347 L 270.62005,585.12294 L 267.62368,580.67395 L 272.97758,581.00183 L 276.28289,576.7773 L 277.62549,581.97048 L 282.66466,583.80857 L 278.14054,586.69025 Z"
       inkscape:transform-center-x="-0.50925048"
       inkscape:transform-center-y="-0.2707741" />
    <text
       xml:space="preserve"
       style="font-style:normal;font-variant:normal;font-weight:normal;font-stretch:normal;font-size:18.01098633px;line-height:125%;font-family:Imperator;-inkscape-font-specification:Imperator;text-align:center;letter-spacing:0px;word-spacing:0px;text-anchor:middle;fill:#000000;fill-opacity:1;stroke:none;stroke-width:1px;stroke-linecap:butt;stroke-linejoin:miter;stroke-opacity:1"
       x="313.06409"
       y="595.33624"
       id="text5731"
       sodipodi:linespacing="125%"><tspan
         sodipodi:role="line"
         id="tspan5733"
         x="313.06409"
         y="595.33624"
         style="font-style:normal;font-variant:normal;font-weight:bold;font-stretch:normal;font-family:Zapfino;-inkscape-font-specification:'Zapfino Bold'">Home</tspan></text>
  </g>
</svg>
